<svg width="13" height="12" viewBox="0 0 13 12" fill="none" xmlns="http://www.w3.org/2000/svg">
<path fill-rule="evenodd" clip-rule="evenodd" d="M7.20837 1.18929C7.20837 0.798089 6.89124 0.480957 6.50004 0.480957C6.10884 0.480957 5.79171 0.798089 5.79171 1.18929V5.2917H1.68929C1.29809 5.2917 0.980957 5.60883 0.980957 6.00003C0.980957 6.39123 1.29809 6.70836 1.68929 6.70836H5.79171V10.8108C5.79171 11.202 6.10884 11.5191 6.50004 11.5191C6.89124 11.5191 7.20837 11.202 7.20837 10.8108V6.70836H11.3108C11.702 6.70836 12.0191 6.39123 12.0191 6.00003C12.0191 5.60883 11.702 5.2917 11.3108 5.2917H7.20837V1.18929Z" fill="black"/>
</svg>
