<svg width="17" height="16" viewBox="0 0 17 16" fill="none" xmlns="http://www.w3.org/2000/svg">
<path fill-rule="evenodd" clip-rule="evenodd" d="M11.645 3.17301L6.67505 8.14294C6.59336 8.22462 6.55039 8.2679 6.52 8.30171C6.5105 8.31228 6.5047 8.31925 6.50144 8.32335C6.49961 8.32825 6.49661 8.33682 6.49244 8.35039C6.47908 8.39385 6.46408 8.45297 6.43606 8.56504L5.88886 10.7538L8.07766 10.2066C8.18973 10.1786 8.24885 10.1636 8.29231 10.1503C8.30588 10.1461 8.31445 10.1431 8.31935 10.1413C8.32345 10.138 8.33043 10.1322 8.34099 10.1227C8.3748 10.0923 8.41808 10.0493 8.49976 9.96765L13.4697 4.99772L11.645 3.17301ZM13.424 0.0999756C13.0545 0.0999756 12.7651 0.257894 12.5327 0.435151C12.3238 0.594549 12.0988 0.819673 11.8591 1.05945L5.72531 7.1932L5.69435 7.22407C5.57233 7.34551 5.43185 7.48532 5.33219 7.66133C5.23253 7.83735 5.18492 8.02974 5.14357 8.19685L5.13303 8.23928L4.46745 10.9016C4.43791 11.0192 4.39982 11.1709 4.38685 11.3035C4.37208 11.4545 4.36922 11.7663 4.62281 12.0199C4.8764 12.2735 5.18823 12.2706 5.33922 12.2558C5.47178 12.2429 5.62348 12.2048 5.74114 12.1753L8.40342 11.5097L8.44585 11.4991C8.61297 11.4578 8.80536 11.4102 8.98137 11.3105C9.15739 11.2109 9.2972 11.0704 9.41864 10.9483L9.4495 10.9174L15.5833 4.78364C15.823 4.54394 16.0482 4.31887 16.2076 4.10996C16.3848 3.87764 16.5427 3.58823 16.5427 3.21873C16.5427 2.84923 16.3848 2.55982 16.2076 2.3275C16.0482 2.11858 15.823 1.89353 15.5833 1.65382L14.9889 1.05947C14.7492 0.819685 14.5241 0.594549 14.3152 0.435151C14.0829 0.257894 13.7935 0.0999756 13.424 0.0999756Z" fill="black"/>
<path fill-rule="evenodd" clip-rule="evenodd" d="M0.45752 4.44324C0.45752 3.19965 1.46565 2.19152 2.70923 2.19152H6.37167C6.74257 2.19152 7.04324 2.49219 7.04324 2.86309C7.04324 3.23398 6.74257 3.53465 6.37167 3.53465H2.70923C2.20744 3.53465 1.80065 3.94144 1.80065 4.44324V13.6483C1.80065 14.1501 2.20744 14.5569 2.70924 14.5569H12.4322C12.934 14.5569 13.3408 14.1501 13.3408 13.6483V10.2624C13.3408 9.89155 13.6414 9.59088 14.0123 9.59088C14.3832 9.59088 14.6839 9.89155 14.6839 10.2624V13.6483C14.6839 14.8919 13.6758 15.9 12.4322 15.9H2.70924C1.46565 15.9 0.45752 14.8919 0.45752 13.6483V4.44324Z" fill="black"/>
</svg>
