<svg width="14" height="14" viewBox="0 0 14 14" fill="none" xmlns="http://www.w3.org/2000/svg">
<path fill-rule="evenodd" clip-rule="evenodd" d="M7.35423 0.557524C7.14727 0.391958 6.8532 0.391958 6.64624 0.557524L4.42207 2.33686C4.17768 2.53237 4.13806 2.88897 4.33357 3.13335C4.52907 3.37773 4.88567 3.41735 5.13005 3.22185L6.43357 2.17904V5.00002C6.43357 5.31298 6.68727 5.56668 7.00023 5.56668C7.3132 5.56668 7.5669 5.31298 7.5669 5.00002V2.17904L8.87042 3.22185C9.1148 3.41735 9.4714 3.37773 9.6669 3.13335C9.86241 2.88897 9.82278 2.53237 9.5784 2.33686L7.35423 0.557524ZM10.8669 9.66666C11.1113 9.86216 11.4679 9.82254 11.6634 9.57816L13.4427 7.35398C13.6083 7.14703 13.6083 6.85295 13.4427 6.646L11.6634 4.42182C11.4679 4.17744 11.1113 4.13782 10.8669 4.33332C10.6225 4.52883 10.5829 4.88543 10.7784 5.12981L11.8212 6.43332L9.00023 6.43332C8.68727 6.43332 8.43356 6.68703 8.43356 6.99999C8.43356 7.31295 8.68727 7.56666 9.00023 7.56666H11.8212L10.7784 8.87017C10.5829 9.11455 10.6225 9.47115 10.8669 9.66666ZM6.64624 13.4425C6.8532 13.608 7.14727 13.608 7.35423 13.4425L9.5784 11.6631C9.82278 11.4676 9.86241 11.111 9.6669 10.8667C9.4714 10.6223 9.1148 10.5826 8.87041 10.7782L7.5669 11.821V8.99998C7.5669 8.68702 7.3132 8.43332 7.00023 8.43332C6.68727 8.43332 6.43357 8.68702 6.43357 8.99998V11.821L5.13005 10.7782C4.88567 10.5826 4.52907 10.6223 4.33357 10.8667C4.13806 11.111 4.17768 11.4676 4.42207 11.6631L6.64624 13.4425ZM0.557768 7.35398C0.392202 7.14703 0.392202 6.85295 0.557768 6.646L2.33711 4.42182C2.53261 4.17744 2.88921 4.13782 3.13359 4.33332C3.37798 4.52883 3.4176 4.88543 3.22209 5.12981L2.17928 6.43332H5.00026C5.31322 6.43332 5.56693 6.68703 5.56693 6.99999C5.56693 7.31295 5.31322 7.56666 5.00026 7.56666H2.17928L3.22209 8.87017C3.4176 9.11455 3.37798 9.47115 3.13359 9.66666C2.88921 9.86216 2.53261 9.82254 2.33711 9.57816L0.557768 7.35398Z" fill="black"/>
</svg>
