<svg width="10" height="10" viewBox="0 0 10 10" fill="none" xmlns="http://www.w3.org/2000/svg">
<path fill-rule="evenodd" clip-rule="evenodd" d="M5.56665 1.15138C5.56665 0.838422 5.31295 0.584717 4.99998 0.584717C4.68702 0.584717 4.43332 0.838422 4.43332 1.15138V4.43331H1.15138C0.838422 4.43331 0.584717 4.68701 0.584717 4.99997C0.584717 5.31294 0.838422 5.56664 1.15138 5.56664H4.43332V8.84858C4.43332 9.16154 4.68702 9.41524 4.99998 9.41524C5.31294 9.41524 5.56665 9.16154 5.56665 8.84858V5.56664H8.84858C9.16154 5.56664 9.41525 5.31294 9.41525 4.99997C9.41525 4.68701 9.16154 4.43331 8.84858 4.43331H5.56665V1.15138Z" fill="#007AFF"/>
</svg>
