<svg width="18" height="16" viewBox="0 0 18 16" fill="none" xmlns="http://www.w3.org/2000/svg">
<path fill-rule="evenodd" clip-rule="evenodd" d="M4.80184 15.4828L13.1518 15.4827C13.167 15.4827 13.1824 15.4828 13.1979 15.4828C13.2592 15.4828 13.3197 15.4828 13.3795 15.4827H13.5111C14.2174 15.4818 14.8123 15.4743 15.2962 15.4158C15.8734 15.346 16.4013 15.1933 16.833 14.805C17.2756 14.407 17.4605 13.9032 17.5432 13.3497C17.6198 12.8372 17.6198 12.1959 17.6198 11.4462L17.6198 7.66812C17.6206 6.67036 17.6212 5.93082 17.2838 5.27106C17.1015 4.91458 16.8494 4.6288 16.5404 4.34766C16.2448 4.07867 15.8628 3.78421 15.399 3.42673L14.4026 2.65874C13.5594 2.00879 12.8755 1.48162 12.2712 1.12271C11.6403 0.747991 11.0338 0.517212 10.3395 0.517212C9.86378 0.517212 9.42928 0.625567 8.9999 0.814339C8.57051 0.625567 8.13601 0.517212 7.66027 0.517212C6.96597 0.517212 6.35952 0.747991 5.72861 1.12271C5.12429 1.48163 4.44039 2.00879 3.59715 2.65877L2.60085 3.42672C2.13705 3.7842 1.75501 4.07867 1.4594 4.34766C1.15042 4.6288 0.89833 4.91458 0.716004 5.27106C0.378561 5.93082 0.379156 6.67036 0.37996 7.66811L0.380038 11.4462C0.379996 12.1959 0.37996 12.8372 0.456575 13.3497C0.539336 13.9032 0.724155 14.407 1.16677 14.805C1.5985 15.1933 2.12636 15.346 2.7036 15.4158C3.25744 15.4828 3.95653 15.4828 4.80184 15.4828ZM14.6749 14.0381C14.6798 14.0348 14.6847 14.0316 14.6896 14.0283C14.8492 14.02 14.993 14.0086 15.1241 13.9928C15.5682 13.9391 15.757 13.8449 15.8745 13.7392C15.9812 13.6433 16.071 13.5026 16.1256 13.1377C16.1845 12.7437 16.1863 12.2107 16.1863 11.3933V7.81785C16.1863 6.60241 16.1682 6.23776 16.0076 5.92378C15.9326 5.77709 15.8143 5.62502 15.5757 5.40785C15.3285 5.18295 14.9933 4.92389 14.5009 4.54432L13.5633 3.82159C12.6758 3.13754 12.0601 2.66451 11.5392 2.35514C11.3161 2.22261 11.1229 2.12804 10.9468 2.06384C11.1905 2.24805 11.4485 2.44687 11.7234 2.65875L12.7197 3.42673C13.1835 3.78421 13.5655 4.07867 13.8611 4.34766C14.1701 4.6288 14.4222 4.91458 14.6045 5.27106C14.942 5.93082 14.9414 6.67036 14.9406 7.66812L14.9405 11.4462C14.9405 12.1959 14.9406 12.8372 14.864 13.3497C14.8306 13.5729 14.7806 13.7881 14.7038 13.9914L14.7033 13.9927C14.6988 14.0046 14.6943 14.0165 14.6896 14.0283L14.6787 14.032L14.6749 14.0381ZM4.43654 3.82159C5.32401 3.13754 5.93969 2.66451 6.46058 2.35514C6.96338 2.05652 7.31399 1.95063 7.66027 1.95063C8.00655 1.95063 8.35717 2.05652 8.85996 2.35514C9.38085 2.66451 9.99653 3.13754 10.884 3.82159L11.8216 4.54432C12.3141 4.92389 12.6493 5.18295 12.8964 5.40785C13.1351 5.62502 13.2533 5.77709 13.3284 5.92378C13.4889 6.23776 13.5071 6.60241 13.5071 7.81785V11.3933C13.5071 12.2107 13.5052 12.7437 13.4463 13.1377C13.3918 13.5026 13.3019 13.6433 13.1953 13.7392C13.0778 13.8449 12.889 13.9391 12.4449 13.9928C11.9893 14.0479 11.3808 14.0493 10.4849 14.0493V10.5501C10.4849 9.6886 9.78656 8.99021 8.92505 8.99021H6.39549C5.53398 8.99021 4.83559 9.6886 4.83559 10.5501V14.0493C3.93973 14.0493 3.33126 14.0479 2.87565 13.9928C2.43156 13.9391 2.24278 13.8449 2.12524 13.7392C2.0186 13.6433 1.92879 13.5026 1.87424 13.1377C1.81533 12.7437 1.81346 12.2107 1.81346 11.3933V7.81785C1.81346 6.60241 1.8316 6.23776 1.99219 5.92378C2.06721 5.77709 2.18545 5.62502 2.42411 5.40785C2.67128 5.18295 3.00646 4.92389 3.4989 4.54432L4.43654 3.82159ZM6.26901 14.0493V10.5501C6.26901 10.4803 6.32564 10.4236 6.39549 10.4236H8.92505C8.9949 10.4236 9.05153 10.4803 9.05153 10.5501V14.0493H6.26901Z" fill="black"/>
</svg>
