<svg width="20" height="20" viewBox="0 0 20 20" fill="none" xmlns="http://www.w3.org/2000/svg">
<path fill-rule="evenodd" clip-rule="evenodd" d="M0.149902 8.72614C0.149902 3.98968 3.98956 0.150024 8.72602 0.150024C13.4625 0.150024 17.3021 3.98968 17.3021 8.72614C17.3021 13.4626 13.4625 17.3023 8.72602 17.3023C3.98956 17.3023 0.149902 13.4626 0.149902 8.72614ZM8.72602 2.01563C5.0199 2.01563 2.01551 5.02003 2.01551 8.72614C2.01551 12.4323 5.0199 15.4366 8.72602 15.4366C12.4321 15.4366 15.4365 12.4323 15.4365 8.72614C15.4365 5.02003 12.4321 2.01563 8.72602 2.01563Z" fill="#262626"/>
<path d="M15.7097 15.7099C16.074 15.3456 16.6646 15.3456 17.0289 15.7099L19.5767 18.2576C19.941 18.6219 19.941 19.2125 19.5767 19.5768C19.2124 19.9411 18.6218 19.9411 18.2575 19.5768L15.7097 17.029C15.3455 16.6648 15.3455 16.0741 15.7097 15.7099Z" fill="#262626"/>
</svg>
