<svg width="15" height="16" viewBox="0 0 15 16" fill="none" xmlns="http://www.w3.org/2000/svg">
<path fill-rule="evenodd" clip-rule="evenodd" d="M7.5 0.678589C7.06278 0.678589 6.70833 1.03303 6.70833 1.47026V8.13692C6.70833 8.57415 7.06278 8.92859 7.5 8.92859C7.93723 8.92859 8.29167 8.57415 8.29167 8.13692V1.47026C8.29167 1.03303 7.93723 0.678589 7.5 0.678589ZM3.9382 2.62617C3.65612 2.29211 3.15664 2.24997 2.82258 2.53205C1.68727 3.49071 0.873936 4.77507 0.492691 6.21125C0.111447 7.64743 0.180703 9.16608 0.691084 10.5616C1.20147 11.9571 2.12832 13.1621 3.34618 14.0135C4.56404 14.8648 6.01408 15.3214 7.5 15.3214C8.98592 15.3214 10.436 14.8648 11.6538 14.0135C12.8717 13.1621 13.7985 11.9571 14.3089 10.5616C14.8193 9.16608 14.8886 7.64743 14.5073 6.21125C14.1261 4.77507 13.3127 3.49071 12.1774 2.53205C11.8434 2.24997 11.3439 2.29211 11.0618 2.62617C10.7797 2.96023 10.8219 3.45971 11.1559 3.74179C12.0433 4.49109 12.679 5.49495 12.977 6.61749C13.275 7.74002 13.2208 8.92701 12.8219 10.0178C12.423 11.1085 11.6986 12.0503 10.7467 12.7158C9.79478 13.3812 8.66141 13.7381 7.5 13.7381C6.33859 13.7381 5.20522 13.3812 4.25334 12.7158C3.30145 12.0503 2.57701 11.1085 2.17809 10.0178C1.77917 8.92701 1.72504 7.74002 2.02302 6.61749C2.32101 5.49495 2.95671 4.49109 3.84409 3.74179C4.17815 3.45971 4.22029 2.96023 3.9382 2.62617Z" fill="white"/>
</svg>
