<svg width="14" height="14" viewBox="0 0 14 14" fill="none" xmlns="http://www.w3.org/2000/svg">
<path fill-rule="evenodd" clip-rule="evenodd" d="M1.56668 7.00002C1.56668 3.99927 3.99927 1.56668 7.00002 1.56668C10.0008 1.56668 12.4333 3.99927 12.4333 7.00002C12.4333 10.0008 10.0008 12.4333 7.00002 12.4333C3.99927 12.4333 1.56668 10.0008 1.56668 7.00002ZM7.00002 0.43335C3.37335 0.43335 0.43335 3.37335 0.43335 7.00002C0.43335 10.6267 3.37335 13.5667 7.00002 13.5667C10.6267 13.5667 13.5667 10.6267 13.5667 7.00002C13.5667 3.37335 10.6267 0.43335 7.00002 0.43335ZM9.7392 5.79812C9.93955 5.55769 9.90707 5.20037 9.66664 5.00002C9.42622 4.79967 9.0689 4.83215 8.86855 5.07257L6.29523 8.16055L5.1347 7.00002C4.9134 6.77872 4.55461 6.77872 4.33331 7.00002C4.11201 7.22132 4.11201 7.58011 4.33331 7.80141L6.37139 9.83949L9.7392 5.79812Z" fill="white"/>
</svg>
