<svg width="14" height="14" viewBox="0 0 14 14" fill="none" xmlns="http://www.w3.org/2000/svg">
<path d="M5.79827 5.23185C6.11124 5.23185 6.36494 5.48556 6.36494 5.79852V9.70365C6.36494 10.0166 6.11124 10.2703 5.79827 10.2703C5.48531 10.2703 5.23161 10.0166 5.23161 9.70365V5.79852C5.23161 5.48556 5.48531 5.23185 5.79827 5.23185Z" fill="white"/>
<path d="M8.76812 5.79852C8.76812 5.48556 8.51441 5.23185 8.20145 5.23185C7.88849 5.23185 7.63479 5.48556 7.63479 5.79852V9.70365C7.63479 10.0166 7.88849 10.2703 8.20145 10.2703C8.51441 10.2703 8.76812 10.0166 8.76812 9.70365V5.79852Z" fill="white"/>
<path fill-rule="evenodd" clip-rule="evenodd" d="M3.97704 2.22786L4.46726 0.982327C4.65287 0.510728 5.10809 0.200684 5.61491 0.200684H8.42763C8.94501 0.200684 9.40739 0.523594 9.58554 1.00933L10.0325 2.22786H13.0077C13.3207 2.22786 13.5744 2.48157 13.5744 2.79453C13.5744 3.10749 13.3207 3.3612 13.0077 3.3612H12.0684C12.0711 3.39418 12.0724 3.42753 12.0724 3.4612V11.6746C12.0724 12.724 11.2218 13.5746 10.1724 13.5746H3.82727C2.77793 13.5746 1.92727 12.724 1.92727 11.6746V3.4612C1.92727 3.42753 1.92862 3.39418 1.93126 3.3612H0.99196C0.678998 3.3612 0.425293 3.10749 0.425293 2.79453C0.425293 2.48157 0.678998 2.22786 0.99196 2.22786H3.97704ZM5.52185 1.39739C5.5369 1.35916 5.57381 1.33402 5.61491 1.33402H8.42763C8.46958 1.33402 8.50707 1.3602 8.52152 1.39958L8.82531 2.22786H5.195L5.52185 1.39739ZM4.35615 3.3612H3.1606C3.10537 3.3612 3.0606 3.40597 3.0606 3.4612V11.6746C3.0606 12.098 3.40385 12.4413 3.82727 12.4413H10.1724C10.5959 12.4413 10.9391 12.098 10.9391 11.6746V3.4612C10.9391 3.40597 10.8943 3.3612 10.8391 3.3612H9.64357C9.64129 3.36122 9.63902 3.36124 9.63674 3.36124H4.36297C4.3607 3.36124 4.35842 3.36122 4.35615 3.3612Z" fill="white"/>
</svg>
