<svg width="36" height="36" viewBox="0 0 36 36" fill="none" xmlns="http://www.w3.org/2000/svg">
<path fill-rule="evenodd" clip-rule="evenodd" d="M19.9429 7.90506e-07H16.057C12.7093 -3.45895e-05 10.039 -6.28009e-05 7.94495 0.281472C5.78219 0.572248 4.00308 1.18872 2.5959 2.5959C1.18872 4.00308 0.572248 5.78219 0.281472 7.94495C-6.28008e-05 10.039 -3.45895e-05 12.7093 7.90506e-07 16.057V19.943C-3.45895e-05 23.2907 -6.28008e-05 25.961 0.281472 28.055C0.572248 30.2178 1.18872 31.9969 2.5959 33.4041C4.00308 34.8113 5.78219 35.4277 7.94495 35.7185C10.039 36 12.7093 36 16.0571 36H19.9429C23.2906 36 25.961 36 28.055 35.7185C30.2178 35.4277 31.9969 34.8113 33.4041 33.4041C34.8113 31.9969 35.4277 30.2178 35.7185 28.055C36 25.961 36 23.2906 36 19.9429V16.0571C36 12.7093 36 10.039 35.7185 7.94495C35.4277 5.78219 34.8113 4.00308 33.4041 2.5959C31.9969 1.18872 30.2178 0.572248 28.055 0.281472C25.961 -6.28009e-05 23.2906 -3.45895e-05 19.9429 7.90506e-07ZM4.79259 4.79259C5.52636 4.05883 6.54062 3.60483 8.35889 3.36037C10.2218 3.1099 12.6829 3.1066 16.1726 3.1066H19.8274C23.3171 3.1066 25.7781 3.1099 27.6411 3.36037C29.4594 3.60483 30.4736 4.05883 31.2074 4.79259C31.9412 5.52636 32.3951 6.54062 32.6396 8.35889C32.8901 10.2219 32.8934 12.6829 32.8934 16.1726V19.8274C32.8934 20.4294 32.8933 21.0009 32.8918 21.5439L32.1305 20.838C31.3246 20.0908 30.6427 19.4585 30.0366 18.9849C29.4006 18.488 28.729 18.0677 27.9121 17.8392C26.8089 17.5306 25.632 17.5306 24.5287 17.8392C23.7119 18.0677 23.0403 18.488 22.4043 18.9849C21.7981 19.4586 21.1163 20.0908 20.3102 20.8381L20.2895 20.8574L20.2569 20.8875C19.6304 21.4684 19.2475 21.821 18.9457 22.0524C18.8205 22.1484 18.7427 22.1965 18.7025 22.2187C18.6572 22.2199 18.6121 22.2119 18.5704 22.1951C18.542 22.1607 18.4891 22.0892 18.4113 21.9569C18.2238 21.6382 18.0095 21.179 17.6604 20.4239L17.5259 20.1329L17.5247 20.1302L17.5098 20.0979C16.7739 18.506 16.1658 17.1904 15.5663 16.2027C14.9509 15.1888 14.2082 14.2803 13.0734 13.7529C12.1094 13.3048 11.0307 13.1122 9.95612 13.1963C8.69116 13.2952 7.63769 13.883 6.66015 14.6125C5.70795 15.3231 4.61635 16.3352 3.29544 17.5599L3.26639 17.5867L3.2624 17.5905L3.22195 17.628L3.1066 17.735V16.1726C3.1066 12.6829 3.1099 10.2218 3.36037 8.35889C3.60483 6.54062 4.05883 5.52636 4.79259 4.79259Z" fill="url(#paint0_linear_283_489)"/>
<g filter="url(#filter0_bi_283_489)">
<path fill-rule="evenodd" clip-rule="evenodd" d="M19.9429 7.90506e-07H16.057C12.7093 -3.45895e-05 10.039 -6.28008e-05 7.94495 0.281472C5.78219 0.572248 4.00308 1.18872 2.5959 2.5959C1.18872 4.00308 0.572248 5.78219 0.281472 7.94495C-6.28008e-05 10.039 -3.45895e-05 12.7093 7.90506e-07 16.057V19.943C-3.45895e-05 23.2907 -6.28008e-05 25.961 0.281472 28.055C0.572248 30.2178 1.18872 31.9969 2.5959 33.4041C4.00308 34.8113 5.78219 35.4277 7.94495 35.7185C10.039 36 12.7093 36 16.0571 36H19.9429C23.2906 36 25.961 36 28.055 35.7185C30.2178 35.4277 31.9969 34.8113 33.4041 33.4041C34.8113 31.9969 35.4277 30.2178 35.7185 28.055C36 25.961 36 23.2906 36 19.9429V16.0571C36 12.7093 36 10.039 35.7185 7.94495C35.4277 5.78219 34.8113 4.00308 33.4041 2.5959C31.9969 1.18872 30.2178 0.572248 28.055 0.281472C25.961 -6.28008e-05 23.2906 -3.45895e-05 19.9429 7.90506e-07ZM4.79259 4.79259C5.52636 4.05883 6.54062 3.60483 8.35889 3.36037C10.2218 3.1099 12.6829 3.1066 16.1726 3.1066H19.8274C23.3171 3.1066 25.7781 3.1099 27.6411 3.36037C29.4594 3.60483 30.4736 4.05883 31.2074 4.79259C31.9411 5.52636 32.3951 6.54062 32.6396 8.35889C32.8901 10.2218 32.8934 12.6829 32.8934 16.1726V19.8274C32.8934 20.4294 32.8933 21.0009 32.8918 21.5439L32.1305 20.838C31.3246 20.0908 30.6427 19.4585 30.0366 18.9849C29.4006 18.488 28.729 18.0677 27.9121 17.8392C26.8089 17.5306 25.6319 17.5306 24.5287 17.8392C23.7119 18.0677 23.0403 18.488 22.4043 18.9849C21.7981 19.4586 21.1163 20.0908 20.3102 20.8381L20.2895 20.8574L20.2569 20.8875C19.6304 21.4684 19.2475 21.821 18.9457 22.0524C18.8205 22.1484 18.7427 22.1965 18.7025 22.2187C18.6572 22.2199 18.6121 22.2119 18.5704 22.1951C18.542 22.1607 18.4891 22.0892 18.4113 21.9569C18.2238 21.6382 18.0095 21.179 17.6604 20.4239L17.5259 20.1329L17.5247 20.1302L17.5098 20.0979C16.7739 18.506 16.1658 17.1904 15.5663 16.2027C14.9509 15.1888 14.2082 14.2803 13.0734 13.7529C12.1094 13.3048 11.0307 13.1122 9.95612 13.1963C8.69116 13.2952 7.63769 13.883 6.66015 14.6125C5.70795 15.3231 4.61635 16.3352 3.29544 17.5599L3.26639 17.5867L3.2624 17.5905L3.22195 17.628L3.1066 17.735V16.1726C3.1066 12.6829 3.1099 10.2218 3.36037 8.35889C3.60483 6.54062 4.05883 5.52636 4.79259 4.79259ZM3.11133 22.3114C3.12447 24.5374 3.17399 26.2548 3.36037 27.6411C3.60483 29.4594 4.05883 30.4736 4.79259 31.2074C5.52636 31.9412 6.54062 32.3952 8.35889 32.6396C10.2218 32.8901 12.6829 32.8934 16.1726 32.8934H19.8274C23.3171 32.8934 25.7781 32.8901 27.6411 32.6396C29.4594 32.3952 30.4736 31.9412 31.2074 31.2074C31.9411 30.4736 32.3951 29.4594 32.6396 27.6411C32.7058 27.1488 32.7547 26.6148 32.7909 26.0311L29.7135 23.1779C28.8413 22.3692 28.2639 21.8358 27.7852 21.4618C27.3229 21.1006 27.0748 20.9883 26.903 20.9403C26.4579 20.8157 25.983 20.8157 25.5378 20.9403C25.366 20.9883 25.1179 21.1006 24.6557 21.4618C24.1769 21.8358 23.5996 22.3692 22.7273 23.1779L22.692 23.2107L22.6704 23.2307C22.1166 23.7442 21.6168 24.2076 21.1721 24.5485C20.7079 24.9044 20.1145 25.2806 19.3506 25.4049C18.4318 25.5544 17.4857 25.3855 16.6924 24.9302C16.033 24.5518 15.6326 23.9982 15.3442 23.5079C15.0679 23.0383 14.7895 22.4359 14.4811 21.7686L14.469 21.7425L14.4493 21.6999L14.3396 21.4624C13.5533 19.7614 13.0176 18.6082 12.5217 17.7913C12.0308 16.9824 11.7165 16.7456 11.5077 16.6485C11.1188 16.4677 10.6835 16.39 10.2499 16.4239C10.0172 16.4421 9.63047 16.5539 8.85067 17.1358C8.06307 17.7235 7.10371 18.6098 5.69231 19.9184L3.11133 22.3114Z" fill="url(#paint1_linear_283_489)"/>
</g>
<g filter="url(#filter1_bi_283_489)">
<path fill-rule="evenodd" clip-rule="evenodd" d="M33.1742 22.1931L31.9374 21.0463L32.1305 20.838L32.8918 21.5439C32.8922 21.4166 32.8924 21.2877 32.8926 21.1573C32.8933 20.7313 32.8934 20.2883 32.8934 19.8274V16.1726C32.8934 12.6829 32.8901 10.2219 32.6396 8.35889C32.3951 6.54062 31.9411 5.52636 31.2074 4.79259C30.4736 4.05883 29.4594 3.60483 27.6411 3.36037C25.7781 3.1099 23.3171 3.1066 19.8274 3.1066H16.1726C12.6829 3.1066 10.2218 3.1099 8.35889 3.36037C6.54062 3.60483 5.52636 4.05883 4.79259 4.79259C4.05883 5.52636 3.60483 6.54062 3.36037 8.35889C3.1099 10.2218 3.1066 12.6829 3.1066 16.1726V17.735L3.2624 17.5905L3.26639 17.5867L3.29544 17.5599C3.32732 17.5303 3.35906 17.5009 3.39067 17.4716C4.66896 16.2865 5.73093 15.3059 6.66015 14.6125C7.63769 13.883 8.69116 13.2952 9.95612 13.1963C11.0307 13.1122 12.1094 13.3048 13.0734 13.7529C14.2082 14.2804 14.9509 15.1888 15.5663 16.2027C16.1658 17.1904 16.7739 18.506 17.5098 20.0979L17.5247 20.1302L17.5259 20.1329L17.6604 20.4239C18.0095 21.179 18.2238 21.6382 18.4113 21.9569C18.4891 22.0892 18.542 22.1607 18.5704 22.1951C18.6121 22.2119 18.6572 22.2199 18.7025 22.2187C18.7427 22.1965 18.8205 22.1484 18.9457 22.0524C19.2475 21.821 19.6304 21.4684 20.2569 20.8875L20.4501 21.0958C19.8279 21.6727 19.4334 22.0364 19.1186 22.2778C18.9852 22.38 18.8954 22.4367 18.8398 22.4674L18.7794 22.5007L18.7104 22.5026C18.6264 22.505 18.5424 22.4901 18.4642 22.4586L18.3973 22.4316L18.3514 22.3759C18.3111 22.3271 18.2497 22.2425 18.1664 22.101C17.9701 21.7672 17.749 21.2925 17.4026 20.5431L17.2691 20.2543L17.2681 20.252L17.2668 20.2494L17.2519 20.2172C16.5135 18.6197 15.9128 17.321 15.3235 16.3501C14.7203 15.3563 14.0142 14.5034 12.9537 14.0105C12.0346 13.5833 11.0048 13.3992 9.97828 13.4795C8.79163 13.5723 7.7902 14.1236 6.83005 14.8401C5.89275 15.5396 4.8137 16.5396 3.48859 17.7682L3.46092 17.7937L3.45556 17.7989L3.4151 17.8363L2.82253 18.3857V16.1726C2.82253 12.691 2.82522 10.2074 3.07883 8.32104C3.32755 6.47111 3.79645 5.387 4.59172 4.59173C5.387 3.79645 6.47111 3.32755 8.32104 3.07883C10.2074 2.82522 12.691 2.82253 16.1726 2.82253H19.8274C23.3089 2.82253 25.7926 2.82522 27.6789 3.07883C29.5289 3.32755 30.613 3.79645 31.4083 4.59173C32.2035 5.387 32.6724 6.47111 32.9211 8.32104C33.1748 10.2074 33.1774 12.691 33.1774 16.1726V19.8274C33.1774 20.4294 33.1773 21.0012 33.1759 21.5447L33.1742 22.1931ZM20.2895 20.8574L20.2569 20.8875L20.4501 21.0958L20.4826 21.0657L20.2895 20.8574ZM20.5034 21.0464L20.4826 21.0657L20.2895 20.8574L20.3102 20.8381C21.1163 20.0908 21.7981 19.4586 22.4043 18.9849C23.0403 18.488 23.7119 18.0677 24.5287 17.8392C25.632 17.5306 26.8089 17.5306 27.9121 17.8392C28.729 18.0677 29.4006 18.488 30.0366 18.9849C30.6427 19.4585 31.3246 20.0908 32.1305 20.838L31.9374 21.0463C31.1284 20.2963 30.4562 19.6734 29.8617 19.2088C29.2406 18.7234 28.6026 18.3273 27.8356 18.1128C26.7824 17.8182 25.6584 17.8182 24.6052 18.1128C23.8382 18.3273 23.2003 18.7234 22.5792 19.2088C21.9845 19.6734 21.3124 20.2963 20.5034 21.0464ZM2.82653 22.1881L5.49917 19.7101C6.90575 18.406 7.87811 17.5071 8.68078 16.9081C9.47783 16.3133 9.91663 16.1651 10.2277 16.1407C10.7093 16.103 11.1935 16.1892 11.6275 16.3909C11.9106 16.5225 12.2615 16.8151 12.7646 17.6439C13.2707 18.4778 13.8141 19.6486 14.5974 21.3432L14.7269 21.6233L14.7389 21.6494C15.0494 22.321 15.3214 22.909 15.5891 23.3639C15.8673 23.8369 16.2369 24.3413 16.8338 24.6839C17.5694 25.106 18.4493 25.2637 19.305 25.1245C20.001 25.0112 20.5499 24.6676 20.9993 24.3231C21.4312 23.992 21.9202 23.5389 22.4772 23.0224L22.5341 22.9696L22.7273 23.1779L22.6704 23.2307C22.1166 23.7442 21.6168 24.2076 21.1721 24.5485C20.7079 24.9044 20.1145 25.2806 19.3506 25.4049C18.4318 25.5544 17.4857 25.3855 16.6924 24.9302C16.033 24.5518 15.6326 23.9982 15.3442 23.5079C15.0679 23.0383 14.7895 22.4359 14.4811 21.7686L14.3396 21.4624C13.5533 19.7614 13.0176 18.6082 12.5217 17.7913C12.0308 16.9825 11.7165 16.7456 11.5077 16.6485C11.1188 16.4677 10.6835 16.39 10.2499 16.4239C10.0172 16.4421 9.63047 16.5539 8.85067 17.1358C8.06307 17.7235 7.10372 18.6098 5.69231 19.9184L3.11133 22.3114C3.12447 24.5374 3.17399 26.2548 3.36037 27.6411C3.60483 29.4594 4.05883 30.4736 4.79259 31.2074C5.52636 31.9411 6.54062 32.3952 8.35889 32.6396C10.2218 32.8901 12.6829 32.8934 16.1726 32.8934H19.8274C23.3171 32.8934 25.7781 32.8901 27.6411 32.6396C29.4594 32.3952 30.4736 31.9411 31.2074 31.2074C31.9411 30.4736 32.3951 29.4594 32.6396 27.6411C32.7058 27.1488 32.7547 26.6148 32.7909 26.0311L29.7135 23.1779C28.8413 22.3692 28.2639 21.8358 27.7852 21.4618C27.323 21.1006 27.0748 20.9883 26.903 20.9403C26.4579 20.8157 25.983 20.8157 25.5378 20.9403C25.366 20.9883 25.1179 21.1006 24.6557 21.4618C24.1769 21.8358 23.5996 22.3692 22.7273 23.1779L22.5341 22.9696C23.4028 22.1643 23.9903 21.6211 24.4808 21.2379C24.9577 20.8652 25.2395 20.7287 25.4613 20.6667C25.9565 20.5282 26.4843 20.5282 26.9796 20.6667C27.2013 20.7287 27.4831 20.8652 27.9601 21.2379C28.4505 21.6211 29.038 22.1643 29.9067 22.9696L33.0827 25.9143L33.0744 26.0487C33.0379 26.6373 32.9885 27.1783 32.9211 27.6789C32.6724 29.5289 32.2035 30.613 31.4083 31.4083C30.613 32.2035 29.5289 32.6724 27.6789 32.9211C25.7926 33.1748 23.3089 33.1774 19.8274 33.1774H16.1726C12.691 33.1774 10.2074 33.1748 8.32104 32.9211C6.47111 32.6724 5.387 32.2035 4.59172 31.4083C3.79645 30.613 3.32755 29.5289 3.07883 27.6789C2.88975 26.2726 2.8404 24.5385 2.82727 22.3131L2.82653 22.1881ZM19.9429 0.284073H16.057C12.7018 0.284038 10.0536 0.284596 7.9828 0.563012C5.85144 0.849565 4.14232 1.45121 2.79677 2.79677C1.45121 4.14232 0.849565 5.85144 0.563011 7.9828C0.284596 10.0536 0.284038 12.7018 0.284073 16.057V19.943C0.284038 23.2982 0.284596 25.9464 0.563011 28.0172C0.849565 30.1485 1.45121 31.8577 2.79677 33.2032C4.14232 34.5488 5.85144 35.1504 7.9828 35.437C10.0536 35.7154 12.7018 35.7159 16.0571 35.7159H19.9429C23.2981 35.7159 25.9463 35.7154 28.0172 35.437C30.1485 35.1504 31.8577 34.5488 33.2032 33.2032C34.5488 31.8577 35.1504 30.1485 35.437 28.0172C35.7154 25.9463 35.7159 23.2981 35.7159 19.9429V16.0571C35.7159 12.7018 35.7154 10.0536 35.437 7.9828C35.1504 5.85144 34.5488 4.14232 33.2032 2.79677C31.8577 1.45121 30.1485 0.849565 28.0172 0.563012C25.9464 0.284596 23.2981 0.284038 19.9429 0.284073ZM19.9429 7.64198e-07C23.2906 -3.38254e-05 25.961 -6.14268e-05 28.055 0.281473C30.2178 0.572249 31.9969 1.18872 33.4041 2.5959C34.8113 4.00308 35.4277 5.78219 35.7185 7.94495C36 10.039 36 12.7093 36 16.0571V19.9429C36 23.2906 36 25.961 35.7185 28.055C35.4277 30.2178 34.8113 31.9969 33.4041 33.4041C31.9969 34.8113 30.2178 35.4277 28.055 35.7185C25.961 36 23.2906 36 19.9429 36H16.0571C12.7093 36 10.039 36 7.94495 35.7185C5.78219 35.4277 4.00308 34.8113 2.5959 33.4041C1.18872 31.9969 0.572248 30.2178 0.281473 28.055C-6.14268e-05 25.961 -3.38254e-05 23.2907 7.64198e-07 19.943V16.057C-3.38254e-05 12.7093 -6.14268e-05 10.039 0.281473 7.94495C0.572248 5.78219 1.18872 4.00308 2.5959 2.5959C4.00308 1.18872 5.78219 0.572249 7.94495 0.281473C10.039 -6.14268e-05 12.7093 -3.38254e-05 16.057 7.64198e-07H19.9429Z" fill="url(#paint2_linear_283_489)"/>
</g>
<path d="M28.9647 9.77651C28.9647 11.2904 27.7374 12.5176 26.2235 12.5176C24.7097 12.5176 23.4824 11.2904 23.4824 9.77651C23.4824 8.26264 24.7097 7.0354 26.2235 7.0354C27.7374 7.0354 28.9647 8.26264 28.9647 9.77651Z" fill="url(#paint3_linear_283_489)"/>
<defs>
<filter id="filter0_bi_283_489" x="-5.00557" y="-5.00557" width="46.0111" height="47.2625" filterUnits="userSpaceOnUse" color-interpolation-filters="sRGB">
<feFlood flood-opacity="0" result="BackgroundImageFix"/>
<feGaussianBlur in="BackgroundImageFix" stdDeviation="2.50278"/>
<feComposite in2="SourceAlpha" operator="in" result="effect1_backgroundBlur_283_489"/>
<feBlend mode="normal" in="SourceGraphic" in2="effect1_backgroundBlur_283_489" result="shape"/>
<feColorMatrix in="SourceAlpha" type="matrix" values="0 0 0 0 0 0 0 0 0 0 0 0 0 0 0 0 0 0 127 0" result="hardAlpha"/>
<feOffset dy="6.25696"/>
<feGaussianBlur stdDeviation="10.0111"/>
<feComposite in2="hardAlpha" operator="arithmetic" k2="-1" k3="1"/>
<feColorMatrix type="matrix" values="0 0 0 0 0.0117647 0 0 0 0 0.839216 0 0 0 0 0.733333 0 0 0 0.1 0"/>
<feBlend mode="normal" in2="shape" result="effect2_innerShadow_283_489"/>
</filter>
<filter id="filter1_bi_283_489" x="-5.00557" y="-5.00557" width="46.0111" height="47.2625" filterUnits="userSpaceOnUse" color-interpolation-filters="sRGB">
<feFlood flood-opacity="0" result="BackgroundImageFix"/>
<feGaussianBlur in="BackgroundImageFix" stdDeviation="2.50278"/>
<feComposite in2="SourceAlpha" operator="in" result="effect1_backgroundBlur_283_489"/>
<feBlend mode="normal" in="SourceGraphic" in2="effect1_backgroundBlur_283_489" result="shape"/>
<feColorMatrix in="SourceAlpha" type="matrix" values="0 0 0 0 0 0 0 0 0 0 0 0 0 0 0 0 0 0 127 0" result="hardAlpha"/>
<feOffset dy="6.25696"/>
<feGaussianBlur stdDeviation="10.0111"/>
<feComposite in2="hardAlpha" operator="arithmetic" k2="-1" k3="1"/>
<feColorMatrix type="matrix" values="0 0 0 0 0.0117647 0 0 0 0 0.839216 0 0 0 0 0.733333 0 0 0 0.1 0"/>
<feBlend mode="normal" in2="shape" result="effect2_innerShadow_283_489"/>
</filter>
<linearGradient id="paint0_linear_283_489" x1="34.5663" y1="1.2" x2="0.0110151" y2="37.5704" gradientUnits="userSpaceOnUse">
<stop stop-color="#A5FECA"/>
<stop offset="0.283155" stop-color="#3EDCEB"/>
<stop offset="0.623976" stop-color="#2594FF"/>
<stop offset="1" stop-color="#5533FF"/>
</linearGradient>
<linearGradient id="paint1_linear_283_489" x1="35.8395" y1="5.17917" x2="7.46742" y2="35.8408" gradientUnits="userSpaceOnUse">
<stop stop-color="white" stop-opacity="0.7"/>
<stop offset="1" stop-color="#F5F5F5" stop-opacity="0.2"/>
</linearGradient>
<linearGradient id="paint2_linear_283_489" x1="17.8396" y1="-6.54837" x2="18.3736" y2="30.4886" gradientUnits="userSpaceOnUse">
<stop stop-color="white"/>
<stop offset="1" stop-color="white" stop-opacity="0.2"/>
</linearGradient>
<linearGradient id="paint3_linear_283_489" x1="28.7463" y1="7.21814" x2="23.4841" y2="12.7568" gradientUnits="userSpaceOnUse">
<stop stop-color="#A5FECA"/>
<stop offset="0.283155" stop-color="#3EDCEB"/>
<stop offset="0.623976" stop-color="#2594FF"/>
<stop offset="1" stop-color="#5533FF"/>
</linearGradient>
</defs>
</svg>
