<svg width="14" height="14" viewBox="0 0 14 14" fill="none" xmlns="http://www.w3.org/2000/svg">
<path d="M5.80175 8.99959L7.0002 7.80114L8.19889 8.99984C8.42019 9.22113 8.77899 9.22113 9.00028 8.99984C9.22158 8.77854 9.22158 8.41974 9.00028 8.19845L7.80159 6.99975L9.00036 5.80098C9.22166 5.57968 9.22166 5.22089 9.00036 4.99959C8.77906 4.77829 8.42027 4.77829 8.19897 4.99959L7.0002 6.19836L5.80167 4.99984C5.58037 4.77854 5.22158 4.77854 5.00028 4.99984C4.77899 5.22113 4.77899 5.57993 5.00028 5.80122L6.19881 6.99975L5.00036 8.1982C4.77906 8.4195 4.77906 8.77829 5.00036 8.99959C5.22166 9.22089 5.58045 9.22089 5.80175 8.99959Z" fill="white"/>
<path fill-rule="evenodd" clip-rule="evenodd" d="M7.00026 0.433228C3.37359 0.433228 0.433594 3.37322 0.433594 6.99989C0.433594 10.6266 3.37359 13.5666 7.00026 13.5666C10.6269 13.5666 13.5669 10.6266 13.5669 6.99989C13.5669 3.37322 10.6269 0.433228 7.00026 0.433228ZM1.56693 6.99989C1.56693 3.99915 3.99951 1.56656 7.00026 1.56656C10.001 1.56656 12.4336 3.99915 12.4336 6.99989C12.4336 10.0006 10.001 12.4332 7.00026 12.4332C3.99951 12.4332 1.56693 10.0006 1.56693 6.99989Z" fill="white"/>
</svg>
